<?xml version="1.0" encoding="UTF-8"?>
<svg version="1.1" xmlns="http://www.w3.org/2000/svg" width="512" height="512">
<path d="M0 0 C3.18069464 1.23120649 5.75194144 2.35742283 8.3828125 4.5390625 C8.98754395 5.03390137 9.59227539 5.52874023 10.21533203 6.03857422 C10.84552246 6.56209473 11.47571289 7.08561523 12.125 7.625 C13.45725539 8.70445675 14.79059723 9.78257393 16.125 10.859375 C17.98110411 12.3628924 19.83677775 13.86681518 21.6875 15.37695312 C23.1519853 16.56135562 24.63782959 17.71920995 26.125 18.875 C26.95257813 19.53242188 27.78015625 20.18984375 28.6328125 20.8671875 C30.9489842 22.30239786 30.9489842 22.30239786 33.34130859 21.29296875 C36.15619043 19.92404182 38.42956491 18.35721626 40.90625 16.4453125 C41.81503906 15.74792969 42.72382812 15.05054688 43.66015625 14.33203125 C45.06587891 13.23955078 45.06587891 13.23955078 46.5 12.125 C47.90572266 11.04412109 47.90572266 11.04412109 49.33984375 9.94140625 C54.54168892 5.96934509 54.54168892 5.96934509 59.49414062 1.69873047 C62 0 62 0 64.51953125 0.04541016 C67.3180712 1.12240732 69.31671771 2.43706088 71.6875 4.2734375 C72.98300781 5.2634375 72.98300781 5.2634375 74.3046875 6.2734375 C75.19414062 6.96695312 76.08359375 7.66046875 77 8.375 C78.76921032 9.7390868 80.53999472 11.10113494 82.3125 12.4609375 C83.09238281 13.06728027 83.87226563 13.67362305 84.67578125 14.29833984 C88.94362515 17.78387282 88.94362515 17.78387282 94.07373047 18.88842773 C96.35596751 18.10123319 98.62345627 17.30982113 100.875 16.4375 C101.7098291 16.12683594 102.5446582 15.81617188 103.40478516 15.49609375 C110.30858315 12.71932335 115.73917197 8.85182479 121.19091797 3.82592773 C125.39550692 0.02231974 125.39550692 0.02231974 128.5390625 -0.09375 C131 1 131 1 133.8515625 3.1328125 C137.98878512 5.5864011 139.76267568 4.98831966 144.375 3.875 C159.96741569 0.22708494 175.30162849 -0.39853231 191.25 -0.375 C192.75904907 -0.37717529 192.75904907 -0.37717529 194.29858398 -0.37939453 C210.09271511 -0.37688613 225.07638471 0.8087041 240.63110352 3.61694336 C243.48160372 4.07787656 246.1227154 4.2992376 249 4 C249.845625 3.319375 250.69125 2.63875 251.5625 1.9375 C254 -0 254 -0 256.2734375 0.08203125 C259.81171493 1.27328511 262.25555474 3.38009731 265.0625 5.75 C270.95908716 10.50452375 276.7978628 13.55312005 284 16 C284.98069458 16.5254541 284.98069458 16.5254541 285.98120117 17.06152344 C288.46201853 18.23744351 290.24755215 18.86478918 293 19 C297.12427349 17.09516113 300.37238796 14.30971588 303.8125 11.375 C305.2037207 10.24771484 305.2037207 10.24771484 306.62304688 9.09765625 C308.34710573 7.69802376 310.06102021 6.28573213 311.76098633 4.85693359 C312.49986084 4.24414551 313.23873535 3.63135742 314 3 C314.97972778 2.10595459 314.97972778 2.10595459 315.97924805 1.19384766 C318 -0 318 -0 320.49536133 0.13037109 C323.17631565 1.06121809 324.87233025 2.13492591 327.07421875 3.9140625 C328.19244019 4.80448242 328.19244019 4.80448242 329.33325195 5.71289062 C330.49860474 6.65938477 330.49860474 6.65938477 331.6875 7.625 C333.29850493 8.89966976 334.91047695 10.17311827 336.5234375 11.4453125 C338.5936032 13.08847952 340.66338538 14.73211324 342.73144531 16.37792969 C344.07734523 17.43724347 345.44377147 18.47035225 346.8125 19.5 C347.87404297 20.31984375 347.87404297 20.31984375 348.95703125 21.15625 C351.03214116 22.27032672 351.03214116 22.27032672 353.36865234 21.24316406 C355.94098253 20.02788244 357.92253116 18.71845555 360.14453125 16.953125 C361.28438477 16.0559375 361.28438477 16.0559375 362.44726562 15.140625 C363.22779297 14.51671875 364.00832031 13.8928125 364.8125 13.25 C374.60222993 5.50355821 374.60222993 5.50355821 378.44921875 2.546875 C379.08561279 2.05541992 379.72200684 1.56396484 380.37768555 1.05761719 C382 0 382 0 384 0 C383.98366013 1.04188477 383.96732025 2.08376953 383.95048523 3.15722656 C383.80411692 13.04163459 383.72776983 22.92451603 383.71759319 32.81002808 C383.71017617 37.89103282 383.67926019 42.96949348 383.59204102 48.04980469 C383.50855432 52.96558528 383.49019007 57.87792436 383.51441383 62.79431152 C383.51264051 64.65686053 383.48854588 66.51954449 383.44031334 68.38146973 C383.11809045 81.60606429 385.64680097 88.99725144 394.81985474 98.6769104 C395.36874107 99.23960318 395.91762741 99.80229595 396.48314667 100.38204002 C399.8738073 103.9987069 402.48842522 108.23424064 405.1875 112.375 C406.04939941 113.67993408 406.04939941 113.67993408 406.92871094 115.01123047 C411.68858116 122.31261181 415.99199879 129.82905289 420.109375 137.5078125 C422.32353409 142.15700119 422.32353409 142.15700119 426.3203125 144.921875 C427.24585938 145.19515625 428.17140625 145.4684375 429.125 145.75 C436.76246362 148.40911692 441.81785437 152.48672723 446 159.4375 C448.98056047 166.1208728 449.38974102 173.83874625 448 181 C446.61363521 184.18294162 445.10390319 186.9224141 443.1171875 189.765625 C441.31397393 194.98611742 442.87253663 199.70343122 444 205 C450.39826284 238.09641717 450.98660115 273.95226759 444 307 C443.78037598 308.04188477 443.56075195 309.08376953 443.33447266 310.15722656 C434.53890408 350.48114251 416.47224015 388.20890693 389.83984375 419.80078125 C389.23269531 420.52652344 388.62554687 421.25226563 388 422 C387.47597092 422.53316833 386.95194183 423.06633667 386.41203308 423.61566162 C384.36261155 427.0762848 384.56052154 430.4382605 384.56762695 434.34863281 C384.5574353 435.18802399 384.54724365 436.02741516 384.53674316 436.89224243 C384.50658481 439.66260427 384.49734292 442.43262049 384.48828125 445.203125 C384.47143667 447.12556103 384.45328672 449.04798604 384.43388367 450.97039795 C384.38635361 456.02722731 384.35656365 461.08401197 384.33044434 466.14099121 C384.30065402 471.30241731 384.25411843 476.4636893 384.20898438 481.625 C384.12291704 491.74991944 384.05558696 501.87487056 384 512 C380.81930536 510.76879351 378.24805856 509.64257717 375.6171875 507.4609375 C375.01245605 506.96609863 374.40772461 506.47125977 373.78466797 505.96142578 C373.15447754 505.43790527 372.52428711 504.91438477 371.875 504.375 C370.54274461 503.29554325 369.20940277 502.21742607 367.875 501.140625 C366.01889589 499.6371076 364.16322225 498.13318482 362.3125 496.62304688 C360.8480147 495.43864438 359.36217041 494.28079005 357.875 493.125 C356.63363281 492.13886719 356.63363281 492.13886719 355.3671875 491.1328125 C353.0510158 489.69760214 353.0510158 489.69760214 350.65869141 490.70703125 C347.84380957 492.07595818 345.57043509 493.64278374 343.09375 495.5546875 C342.18496094 496.25207031 341.27617187 496.94945312 340.33984375 497.66796875 C338.93412109 498.76044922 338.93412109 498.76044922 337.5 499.875 C336.09427734 500.95587891 336.09427734 500.95587891 334.66015625 502.05859375 C329.45831108 506.03065491 329.45831108 506.03065491 324.50585938 510.30126953 C322 512 322 512 319.48046875 511.95458984 C316.6819288 510.87759268 314.68328229 509.56293912 312.3125 507.7265625 C311.44882812 507.0665625 310.58515625 506.4065625 309.6953125 505.7265625 C308.80585938 505.03304688 307.91640625 504.33953125 307 503.625 C305.23078968 502.2609132 303.46000528 500.89886506 301.6875 499.5390625 C300.90761719 498.93271973 300.12773437 498.32637695 299.32421875 497.70166016 C295.03227401 494.18239403 295.03227401 494.18239403 289.86279297 493.15917969 C289.16299316 493.41086914 288.46319336 493.66255859 287.7421875 493.921875 C286.95658447 494.2012793 286.17098145 494.48068359 285.36157227 494.76855469 C284.54100342 495.09243164 283.72043457 495.41630859 282.875 495.75 C282.0305835 496.07129883 281.18616699 496.39259766 280.31616211 496.72363281 C272.99405805 499.67465625 267.73488455 503.57027445 262 509 C258.3761039 512.01880519 258.3761039 512.01880519 255.5 511.875 C253 511 253 511 251.1484375 509.4375 C246.1677696 506.10498039 237.98343333 508.83561913 232.28710938 509.72631836 C218.92591296 511.77163772 205.88195722 512.52573997 192.375 512.4375 C191.37797058 512.43445862 190.38094116 512.43141724 189.35369873 512.42828369 C172.94625293 512.35463137 157.10234675 511.38219258 141 508 C139.47705322 507.68651611 139.47705322 507.68651611 137.92333984 507.36669922 C96.46509253 498.55772896 58.18047228 479.49878029 26 452 C25.25105469 451.36320312 24.50210938 450.72640625 23.73046875 450.0703125 C10.23479379 438.25297532 -2.43558025 425.51448412 -13 411 C-13.85649066 409.85005169 -14.71326433 408.70031411 -15.5703125 407.55078125 C-21.6109414 399.35910474 -26.97005071 390.84354922 -32 382 C-32.36448242 381.36819824 -32.72896484 380.73639648 -33.10449219 380.08544922 C-48.03473018 354.00035999 -57.51385054 324.66414886 -62 295 C-62.26490234 293.31632324 -62.26490234 293.31632324 -62.53515625 291.59863281 C-64.1920586 279.98552257 -64.39873513 268.46820055 -64.375 256.75 C-64.37445618 255.73798523 -64.37391235 254.72597046 -64.37335205 253.68328857 C-64.33261956 237.15469428 -63.42924222 221.22086001 -60 205 C-59.78037598 203.95811523 -59.56075195 202.91623047 -59.33447266 201.84277344 C-50.53890408 161.51885749 -32.47224015 123.79109307 -5.83984375 92.19921875 C-5.23269531 91.47347656 -4.62554687 90.74773437 -4 90 C-3.47597092 89.46683167 -2.95194183 88.93366333 -2.41203308 88.38433838 C-0.36261155 84.9237152 -0.56052154 81.5617395 -0.56762695 77.65136719 C-0.5574353 76.81197601 -0.54724365 75.97258484 -0.53674316 75.10775757 C-0.50658481 72.33739573 -0.49734292 69.56737951 -0.48828125 66.796875 C-0.47143667 64.87443897 -0.45328672 62.95201396 -0.43388367 61.02960205 C-0.38635361 55.97277269 -0.35656365 50.91598803 -0.33044434 45.85900879 C-0.30065402 40.69758269 -0.25411843 35.5363107 -0.20898438 30.375 C-0.12291704 20.25008056 -0.05558696 10.12512944 0 0 Z " fill="#E6EBF0" transform="translate(64,0)"/>
<path d="M0 0 C15.53227691 15.4595977 26.7211832 34.08333611 37.02954102 53.27685547 C39.36425363 57.42236532 40.64195695 58.42631598 45.125 59.75 C52.76246362 62.40911692 57.81785437 66.48672723 62 73.4375 C64.98056047 80.1208728 65.38974102 87.83874625 64 95 C62.61363521 98.18294162 61.10390319 100.9224141 59.1171875 103.765625 C57.31397393 108.98611742 58.87253663 113.70343122 60 119 C66.39826284 152.09641717 66.98660115 187.95226759 60 221 C59.78037598 222.04188477 59.56075195 223.08376953 59.33447266 224.15722656 C50.17048249 266.17019773 30.74703365 309.25296635 0 340 C-0.33 297.1 -0.66 254.2 -1 210 C-2.98 212.64 -4.96 215.28 -7 218 C-9.4140625 220.05859375 -9.4140625 220.05859375 -11.625 221.4375 C-12.35976563 221.91058594 -13.09453125 222.38367188 -13.8515625 222.87109375 C-20.56752951 226.40002914 -29.70589928 226.20258285 -36.859375 224.19921875 C-43.45865415 221.21724634 -47.61461733 216.63714899 -52 211 C-52.73476563 210.06285156 -53.46953125 209.12570312 -54.2265625 208.16015625 C-55.8826739 206.02123713 -57.5289186 203.87740161 -59.1640625 201.72265625 C-62.40632689 197.45340403 -65.70397707 193.2277969 -69 189 C-74.25377934 182.25047025 -79.50688346 175.50119624 -84.69335938 168.69970703 C-86.16283131 166.78818544 -87.65206982 164.89278664 -89.140625 162.99609375 C-102.93624862 145.26301244 -102.93624862 145.26301244 -102.3828125 133.51171875 C-101.23337619 125.97000908 -97.92782762 118.90208682 -92 114 C-84.0671148 108.61995305 -76.54019194 106.38605776 -67 108 C-58.62529904 110.90946696 -52.64283905 115.81010549 -47.375 122.875 C-46.50990335 124.02403178 -45.64398608 125.17244608 -44.77734375 126.3203125 C-44.32858887 126.9174707 -43.87983398 127.51462891 -43.41748047 128.12988281 C-40.96354949 131.36741489 -38.4502476 134.5580421 -35.9375 137.75 C-35.46038574 138.35827637 -34.98327148 138.96655273 -34.49169922 139.59326172 C-32.35160228 142.38823806 -32.35160228 142.38823806 -30 145 C-29.60844727 144.29206299 -29.21689453 143.58412598 -28.81347656 142.85473633 C-21.99635381 130.53675664 -15.17066745 118.2249048 -8.1875 106 C-7.69088867 105.12964111 -7.19427734 104.25928223 -6.68261719 103.36254883 C-4.85758337 100.17771733 -3.03720299 97.05580448 -1 94 C-0.78604599 90.98102096 -0.68866857 88.05130414 -0.68115234 85.03051758 C-0.67110672 84.11324387 -0.6610611 83.19597015 -0.65071106 82.25090027 C-0.61979142 79.21545037 -0.6028195 76.18008902 -0.5859375 73.14453125 C-0.56723292 71.04130792 -0.54766005 68.93809214 -0.5272522 66.83488464 C-0.47585001 61.29636077 -0.43626756 55.75781255 -0.39910889 50.21917725 C-0.35911991 44.56858252 -0.3080043 38.9180898 -0.2578125 33.26757812 C-0.16095747 22.17845699 -0.07658335 11.08927836 0 0 Z " fill="#55A99F" transform="translate(448,86)"/>
<path d="M0 0 C0.33 0 0.66 0 1 0 C1 112.2 1 224.4 1 340 C-29.09181642 309.90818358 -48.78497534 267.31807222 -57.875 226.1875 C-58.05385742 225.37949951 -58.23271484 224.57149902 -58.41699219 223.73901367 C-59.01071221 220.83402642 -59.51674193 217.92564811 -60 215 C-60.12388092 214.25004761 -60.24776184 213.50009521 -60.37539673 212.72741699 C-62.65677628 198.5640162 -63.53115219 184.71040969 -63.4375 170.375 C-63.43445862 169.37797058 -63.43141724 168.38094116 -63.42828369 167.35369873 C-63.35465726 150.95202091 -62.40240265 135.09390461 -59 119 C-58.78037598 117.95811523 -58.56075195 116.91623047 -58.33447266 115.84277344 C-49.53890408 75.51885749 -31.47224015 37.79109307 -4.83984375 6.19921875 C-3.61873861 4.73959626 -2.44270642 3.24099459 -1.31640625 1.70703125 C-0.88199219 1.14371094 -0.44757812 0.58039063 0 0 Z " fill="#FF8A32" transform="translate(63,86)"/>
<path d="M0 0 C2.26971073 2.26971073 2.42167301 3.15226399 3 6.2265625 C3.2475 7.52980469 3.2475 7.52980469 3.5 8.859375 C3.7475 10.22835937 3.7475 10.22835937 4 11.625 C4.165 12.48351562 4.33 13.34203125 4.5 14.2265625 C7.4304909 29.97795111 8.40739244 45.25762261 8.375 61.25 C8.37445618 62.26201477 8.37391235 63.27402954 8.37335205 64.31671143 C8.33261956 80.84530572 7.42924222 96.77913999 4 113 C3.78037598 114.04188477 3.56075195 115.08376953 3.33447266 116.15722656 C-5.80183629 158.04329122 -25.17745229 201.44578788 -56 232 C-56.35321263 215.1258263 -56.61625801 198.25283428 -56.77718258 181.37578869 C-56.85395025 173.53612083 -56.95823791 165.69877226 -57.1315918 157.8605957 C-57.28293404 151.01430308 -57.37829175 144.16969165 -57.41132742 137.3217724 C-57.43058951 133.70764772 -57.4745095 130.09832401 -57.58595085 126.48576927 C-58.20395492 105.62327625 -54.27766203 92.23628294 -42.96216011 75.05814552 C-39.64960865 69.8953332 -36.75561417 64.50379368 -33.8125 59.125 C-29.11436289 50.71865698 -24.35646748 42.34759569 -19.5625 33.99560547 C-14.79197058 25.67115952 -10.11620522 17.29431086 -5.45507812 8.90820312 C-4.88853516 7.89177734 -4.32199219 6.87535156 -3.73828125 5.828125 C-3.23337158 4.9196582 -2.72846191 4.01119141 -2.20825195 3.07519531 C-1 1 -1 1 0 0 Z " fill="#FE8A33" transform="translate(504,194)"/>
<path d="M0 0 C0.73049057 -0.00807175 1.46098114 -0.01614349 2.21360779 -0.02445984 C3.76453275 -0.03830434 5.31548824 -0.04902487 6.86645508 -0.05688477 C9.21301324 -0.07397778 11.55811728 -0.11784184 13.90429688 -0.16210938 C25.51006568 -0.28394495 33.3154322 1.38419523 41.9609375 9.4453125 C48.27100061 16.01292921 50.08625998 22.53423441 49.953125 31.41796875 C49.61456894 34.96054088 48.66715827 37.97806357 47.33984375 41.265625 C46.47315107 43.52437012 46.47315107 43.52437012 46.68359375 47.23828125 C47.84108332 48.91002772 47.84108332 48.91002772 49.43359375 50.42578125 C56.04294175 57.86521324 57.36988262 64.66646295 57.0625 74.58203125 C56.03048597 84.54043468 51.30316596 91.14885736 44.02734375 97.73828125 C35.05065142 104.85188649 24.21242575 104.74435569 13.30517578 104.68432617 C10.92394393 104.67574648 8.54506281 104.70477388 6.1640625 104.73632812 C4.63411529 104.73793895 3.10416388 104.73736487 1.57421875 104.734375 C0.87097473 104.74560898 0.16773071 104.75684296 -0.55682373 104.76841736 C-5.58876021 104.69775176 -8.48664087 103.46729215 -12.31640625 100.23828125 C-15.01608043 96.45364456 -14.61913601 92.16912345 -14.62280273 87.70947266 C-14.63112625 86.85045853 -14.63944977 85.9914444 -14.64802551 85.10639954 C-14.67211522 82.26750146 -14.68089617 79.42883318 -14.6875 76.58984375 C-14.69646678 74.61453177 -14.70558863 72.63922049 -14.71485901 70.66390991 C-14.73134852 66.52299346 -14.73904912 62.38215787 -14.74194336 58.24121094 C-14.74732854 52.93924781 -14.7850145 47.63804607 -14.83068752 42.33629799 C-14.86045221 38.25616694 -14.86766678 34.17621941 -14.86866951 30.09598923 C-14.87287261 28.14156989 -14.88531049 26.18715004 -14.90618706 24.23283768 C-14.93309057 21.49661746 -14.92827951 18.76216454 -14.91577148 16.02587891 C-14.93060577 15.22151901 -14.94544006 14.41715912 -14.96072388 13.58842468 C-14.90757651 9.49865387 -14.5164042 6.98557524 -11.90394592 3.7515564 C-7.98287687 -0.05697474 -5.2323075 0.05481184 0 0 Z " fill="#EC5976" transform="translate(149.31640625,75.76171875)"/>
<path d="M0 0 C1.0202014 -0.00445668 1.0202014 -0.00445668 2.06101292 -0.0090034 C4.35100558 -0.0177083 6.64094607 -0.01920015 8.93095398 -0.02069092 C10.56843681 -0.02531785 12.20591856 -0.03034234 13.84339905 -0.03573608 C18.30008536 -0.04887464 22.75675659 -0.05530794 27.21345925 -0.05974674 C29.99651751 -0.06267528 32.77957162 -0.06677968 35.56262779 -0.07125092 C44.26632141 -0.08493003 52.97000559 -0.09459451 61.67370921 -0.09845281 C71.72787851 -0.10293394 81.78191188 -0.12048267 91.83603984 -0.1494534 C99.60255123 -0.1710571 107.36902434 -0.18115639 115.13556546 -0.18249393 C119.77640737 -0.18354295 124.41712157 -0.18947131 129.0579319 -0.20731354 C133.42374864 -0.22377144 137.78934139 -0.22596087 142.15517807 -0.21717453 C143.75758018 -0.21640291 145.35999421 -0.22076327 146.9623661 -0.23063278 C149.15030863 -0.24331855 151.3374538 -0.23749451 153.52539062 -0.22705078 C155.36185386 -0.22925062 155.36185386 -0.22925062 157.23541737 -0.2314949 C160.75077322 0.17484145 162.59657033 1.10800923 165.45317078 3.14044189 C166.05129578 3.53231689 166.64942078 3.92419189 167.26567078 4.32794189 C169.26516071 7.37979495 168.94888553 10.66364798 168.45317078 14.14044189 C167.14751204 17.30151042 166.32351115 18.69468535 163.27398682 20.2565403 C159.89492296 21.31536863 157.05040859 21.39819609 153.50761414 21.40786743 C152.82083304 21.41239854 152.13405195 21.41692966 151.42645931 21.42159808 C149.13190875 21.43422888 146.83759594 21.43262261 144.54301453 21.43096924 C142.89523514 21.43695519 141.24745857 21.44376089 139.59968567 21.45132446 C135.12869922 21.4689816 130.65778934 21.47367963 126.18677139 21.47495604 C123.39347284 21.47637797 120.60019374 21.48064829 117.80690002 21.48595047 C108.0623501 21.50444741 98.31785487 21.5126212 88.57328796 21.51104736 C79.48856459 21.50984496 70.40407842 21.53096757 61.31941509 21.56253469 C53.5188647 21.58867445 45.71839191 21.59941568 37.91779804 21.59813654 C33.25908376 21.59762638 28.60058046 21.60334012 23.94190979 21.62449265 C19.56203523 21.6438372 15.1825738 21.64402563 10.80268478 21.62945938 C9.19544243 21.6273657 7.58817446 21.63210545 5.9809761 21.6441803 C3.786406 21.65960033 1.59326635 21.65034825 -0.60127258 21.63491821 C-2.44295265 21.63655252 -2.44295265 21.63655252 -4.32183838 21.63821983 C-8.15899517 21.04595397 -9.80651891 19.83658146 -12.54682922 17.14044189 C-14.28314559 13.66780917 -14.14873324 9.92851176 -13.54682922 6.14044189 C-9.28851171 0.76151451 -6.63467176 0.01613495 0 0 Z " fill="#667373" transform="translate(133.5468292236328,307.85955810546875)"/>
<path d="M0 0 C1.01914305 -0.00551503 1.01914305 -0.00551503 2.05887485 -0.01114148 C4.34652877 -0.02219694 6.6341373 -0.0260253 8.92181396 -0.02983093 C10.55767461 -0.03609421 12.19353383 -0.04274089 13.82939148 -0.04974365 C18.28200829 -0.06716663 22.73461435 -0.07770907 27.18725681 -0.08594918 C29.96831258 -0.09109688 32.74936499 -0.09717273 35.5304184 -0.10346031 C44.22930606 -0.12251652 52.92818521 -0.13674641 61.62708974 -0.14507228 C71.67279916 -0.15484552 81.71828828 -0.18116547 91.76392007 -0.22157317 C99.52535066 -0.25172277 107.28671807 -0.26654008 115.04820609 -0.26985329 C119.68521371 -0.27220522 124.3219861 -0.28118395 128.95893097 -0.30631447 C133.32233529 -0.32957987 137.68534926 -0.33383468 142.04879951 -0.32355309 C143.64917613 -0.32305723 145.24957185 -0.32939239 146.84988976 -0.34310913 C149.03768238 -0.36080998 151.22407137 -0.35373246 153.41186523 -0.34057617 C155.24694578 -0.3441587 155.24694578 -0.3441587 157.11909866 -0.34781361 C161.15556144 0.25024263 163.2995835 1.60783114 166.4598999 4.14717102 C168.94376049 7.87296191 168.84032111 9.73428504 168.4598999 14.14717102 C167.23048932 16.91334484 166.30580045 18.58337622 163.77947903 20.26717567 C160.64014889 21.45816583 157.95449605 21.40549158 154.59663391 21.41459656 C153.56161858 21.42139323 153.56161858 21.42139323 152.50569385 21.4283272 C150.1942185 21.44098478 147.88297834 21.43934999 145.57147217 21.43769836 C143.91398821 21.44368271 142.25650704 21.45048804 140.59902954 21.45805359 C136.09699326 21.4757288 131.59503299 21.48040956 127.09296536 21.48168516 C123.33541146 21.48358399 119.57787527 21.4909412 115.82032818 21.49802935 C106.9562798 21.51431614 98.09227206 21.51919798 89.22821045 21.51777649 C80.0815925 21.51657446 70.93521028 21.53768772 61.788652 21.56926382 C53.93716685 21.59540403 46.08575881 21.60614476 38.23423046 21.60486567 C33.54420272 21.60435544 28.85438453 21.61007249 24.1644001 21.63122177 C19.754171 21.65056664 15.34435219 21.65075451 10.93410873 21.63618851 C9.31557937 21.63409474 7.69702457 21.63883508 6.07853889 21.65090942 C3.86859189 21.66632846 1.66006557 21.65707789 -0.54985046 21.64164734 C-1.78631034 21.64273687 -3.02277021 21.64382641 -4.29669857 21.64494896 C-8.14646669 21.05410949 -9.79297926 19.8535632 -12.5401001 17.14717102 C-14.27641646 13.67453829 -14.14200412 9.93524089 -13.5401001 6.14717102 C-9.28505887 0.7723821 -6.62962474 0.02318689 0 0 Z " fill="#677474" transform="translate(133.54010009765625,417.8528289794922)"/>
<path d="M0 0 C15.53227691 15.4595977 26.7211832 34.08333611 37.02954102 53.27685547 C39.52262894 57.70357611 41.1693961 58.63482933 46 60 C45.42032471 60.43119141 44.84064941 60.86238281 44.2434082 61.30664062 C37.17309173 66.64342537 32.4938451 71.6523923 28.3125 79.5 C27.27486527 81.3802777 26.23710031 83.26048354 25.19921875 85.140625 C24.67247559 86.10806641 24.14573242 87.07550781 23.60302734 88.07226562 C20.99844966 92.82920981 18.30553398 97.53559308 15.625 102.25 C12.2384037 108.23534036 8.86820751 114.22946076 5.5234375 120.23828125 C-2.11345793 133.95103819 -9.93960329 147.53155934 -18 161 C-21.09665692 157.94627766 -24.13315308 154.88858588 -26.9375 151.5625 C-27.87916016 150.48162109 -27.87916016 150.48162109 -28.83984375 149.37890625 C-30 147 -30 147 -29.51953125 144.296875 C-27.50943442 139.93563663 -25.17916071 135.8271996 -22.75 131.6875 C-21.67460412 129.83271325 -20.60044139 127.97721111 -19.52734375 126.12109375 C-18.95870605 125.13866699 -18.39006836 124.15624023 -17.80419922 123.14404297 C-13.95586098 116.4378319 -10.21370963 109.67122623 -6.45800781 102.9128418 C-5.89049805 101.89488525 -5.32298828 100.87692871 -4.73828125 99.828125 C-4.23337158 98.9196582 -3.72846191 98.01119141 -3.20825195 97.07519531 C-2 95 -2 95 -1 94 C-0.87470812 91.07882268 -0.81389328 88.18014759 -0.79467773 85.25756836 C-0.78477814 84.3405867 -0.77487854 83.42360504 -0.76467896 82.47883606 C-0.73296351 79.43253201 -0.70826701 76.38621233 -0.68359375 73.33984375 C-0.66303288 71.23376549 -0.64203666 69.12769144 -0.62062073 67.0216217 C-0.56531043 61.46661782 -0.5159408 55.91157615 -0.46777344 50.35650635 C-0.41762365 44.69271464 -0.36190362 39.02897809 -0.30664062 33.36523438 C-0.19894955 22.24353666 -0.09752906 11.12179114 0 0 Z " fill="#4B998E" transform="translate(448,86)"/>
<path d="M0 0 C1.27165512 -0.00860046 2.54331024 -0.01720093 3.85350037 -0.02606201 C5.27601583 -0.03049769 6.69853172 -0.034796 8.12104797 -0.03897095 C9.60898024 -0.0468687 11.09691057 -0.05513744 12.58483887 -0.06375122 C17.48531758 -0.0900154 22.38580502 -0.10528603 27.28633118 -0.11953735 C28.9717287 -0.12489576 30.65712617 -0.13027327 32.34252357 -0.13566971 C39.35363747 -0.1573074 46.36474902 -0.17604375 53.37588787 -0.1872921 C63.42999337 -0.20352691 73.48371208 -0.23668283 83.53767174 -0.29369295 C90.60269545 -0.33239007 97.6676157 -0.35192467 104.73274261 -0.35721266 C108.95400967 -0.36086729 113.17486462 -0.37289923 117.39601707 -0.4053154 C121.36961548 -0.43539131 125.34255237 -0.44170994 129.31624031 -0.42993164 C130.77311036 -0.42971084 132.23001103 -0.4380214 133.68677521 -0.45558548 C146.06567618 -0.59668538 146.06567618 -0.59668538 150.00076294 2.56536865 C152.79351107 5.92954866 153.33718941 7.26859175 152.96211243 11.52890015 C152.56181162 14.7624989 152.27747756 15.9834133 150.27461243 18.65390015 C146.57224793 21.26733391 143.49787344 21.28401262 139.08995056 21.30107117 C137.18879738 21.31180412 137.18879738 21.31180412 135.24923706 21.32275391 C133.8418429 21.32559411 132.43444847 21.32830585 131.02705383 21.3309021 C129.54705648 21.33716752 128.06706071 21.34381439 126.58706665 21.35081482 C121.72511386 21.37184407 116.8631608 21.38221447 112.00117493 21.3921814 C110.32751321 21.39622904 108.65385166 21.40034596 106.98019028 21.40453148 C99.11905395 21.42357874 91.257927 21.43781211 83.39677203 21.44614345 C74.32002086 21.4559219 65.24351317 21.48225909 56.16684783 21.52264434 C49.15190313 21.55278645 42.13702833 21.56761041 35.12202013 21.57092446 C30.93162062 21.57327667 26.74148137 21.58225943 22.55115128 21.60738564 C18.60960328 21.63063896 14.66848742 21.63491088 10.72688866 21.62462425 C9.28089525 21.62412815 7.83488076 21.63047073 6.38895226 21.6441803 C4.4137943 21.66185905 2.43844927 21.65242084 0.46324158 21.64164734 C-0.64177893 21.64403569 -1.74679943 21.64642405 -2.8853054 21.64888477 C-6.54467912 21.03799657 -8.20859755 19.70626677 -10.85038757 17.15390015 C-12.58536873 13.68393782 -12.45832938 9.9388282 -11.85038757 6.15390015 C-9.41288757 3.15390015 -9.41288757 3.15390015 -6.85038757 1.15390015 C-5.06379225 -0.63269518 -2.41491057 0.01209925 0 0 Z " fill="#667273" transform="translate(131.8503875732422,252.84609985351563)"/>
<path d="M0 0 C1.05570694 -0.00571014 2.11141388 -0.01142029 3.19911194 -0.01730347 C4.36225922 -0.01842133 5.52540649 -0.01953918 6.72380066 -0.02069092 C7.94501114 -0.02565582 9.16622162 -0.03062073 10.42443848 -0.03573608 C13.77993664 -0.04785824 17.13537237 -0.05530654 20.49088502 -0.05974674 C22.58715411 -0.06267672 24.68341773 -0.06678142 26.77968407 -0.07125092 C33.33802287 -0.08492853 39.89634916 -0.09459353 46.45470124 -0.09845281 C54.02590766 -0.10293248 61.59693343 -0.12047489 69.16808492 -0.1494534 C75.01953877 -0.17107234 80.87094181 -0.18115722 86.72243518 -0.18249393 C90.21752181 -0.18354194 93.7124387 -0.18944848 97.20748329 -0.20731354 C101.10751289 -0.22686031 105.00731698 -0.22250437 108.90739441 -0.21600342 C110.06446899 -0.2252182 111.22154358 -0.23443298 112.41368103 -0.243927 C113.47784744 -0.23835785 114.54201385 -0.2327887 115.63842773 -0.22705078 C116.56038846 -0.22851734 117.48234919 -0.2299839 118.43224812 -0.2314949 C121.58847038 0.2239627 123.44155855 1.27317142 126.00968933 3.14044189 C128.69178844 7.16359056 128.69812348 10.41264109 128.00968933 15.14044189 C125.89577056 18.63934193 124.89232874 19.84622876 121.00968933 21.14044189 C119.29563278 21.23881878 117.5780194 21.27970058 115.86116028 21.28761292 C114.26291664 21.29834587 114.26291664 21.29834587 112.63238525 21.30929565 C111.46348251 21.31198456 110.29457977 21.31467346 109.09025574 21.31744385 C107.85914566 21.32401505 106.62803558 21.33058624 105.35961914 21.33735657 C101.27682758 21.35710297 97.19407528 21.3687551 93.11125183 21.37872314 C91.70504614 21.38277128 90.29884064 21.38688822 88.89263535 21.39107323 C82.28731702 21.41011781 75.68200983 21.42435166 69.07666934 21.4326852 C61.45335026 21.44246221 53.83032119 21.46879657 46.20710433 21.50918609 C40.31316908 21.53934168 34.41931701 21.55415343 28.52530611 21.55746621 C25.00558179 21.55981692 21.48616756 21.56877976 17.96652603 21.59392738 C14.04022671 21.62152846 10.11430964 21.61737864 6.18791199 21.6104126 C5.02305771 21.62322266 3.85820343 21.63603271 2.65805054 21.64923096 C-5.22153083 21.59815023 -5.22153083 21.59815023 -9.18894958 19.23606873 C-12.25057219 15.67430727 -12.37915725 12.97762309 -12.34968567 8.40216064 C-11.77974201 4.8152326 -9.78805018 3.27205295 -6.99031067 1.14044189 C-4.49070623 -0.10936033 -2.79781873 0.00903812 0 0 Z " fill="#667373" transform="translate(131.9903106689453,362.85955810546875)"/>
<path d="M0 0 C3.5793379 0.89483448 5.44598226 2.88368915 8 5.5 C9.47988792 8.45977584 9.13010399 11.45978009 9.11352539 14.70361328 C9.11367142 15.4451767 9.11381744 16.18674011 9.1139679 16.95077515 C9.11327 19.40731713 9.10548334 21.86378373 9.09765625 24.3203125 C9.09579163 26.0213924 9.09436794 27.72247284 9.09336853 29.42355347 C9.08954678 33.90506467 9.0797194 38.38654357 9.06866455 42.86804199 C9.05844308 47.4393673 9.05386933 52.01069781 9.04882812 56.58203125 C9.03809685 65.55470171 9.02102451 74.52734817 9 83.5 C9.90709717 83.4685791 9.90709717 83.4685791 10.83251953 83.43652344 C13.59650771 83.35291055 16.36022913 83.30119946 19.125 83.25 C20.07632812 83.21648437 21.02765625 83.18296875 22.0078125 83.1484375 C27.86634689 83.06706897 31.42498029 83.43656397 36 87.5 C38.35620437 91.03430656 38.48991613 92.33571287 38 96.5 C34.84210526 102.07894737 34.84210526 102.07894737 32 103.5 C26.63236179 103.80815354 21.26403143 103.85640575 15.88842773 103.9050293 C14.09298474 103.92661421 12.29764711 103.9607234 10.50268555 104.00756836 C7.91146975 104.07457228 5.32242859 104.10202564 2.73046875 104.12109375 C1.93134567 104.14892441 1.1322226 104.17675507 0.30888367 104.20542908 C-0.44507187 104.20265457 -1.1990274 104.19988007 -1.97583008 104.19702148 C-2.63376053 104.20732895 -3.29169098 104.21763641 -3.96955872 104.22825623 C-7.39074275 103.00118377 -9.3163231 100.59844636 -11 97.5 C-11.69374867 94.47274025 -11.68468821 91.54893365 -11.64697266 88.45288086 C-11.65573425 87.56270767 -11.66449585 86.67253448 -11.67352295 85.75538635 C-11.69545801 82.82470383 -11.68098643 79.89554052 -11.6640625 76.96484375 C-11.66743203 74.92273164 -11.67228579 72.88062149 -11.67855835 70.83851624 C-11.68592145 66.56394306 -11.67524096 62.28989311 -11.65185547 58.01538086 C-11.62335022 52.53840272 -11.6397867 47.06264868 -11.66971779 41.58571529 C-11.68779039 37.37088302 -11.68203316 33.15634075 -11.66907883 28.94149971 C-11.66574566 26.92209287 -11.66982873 24.90265962 -11.68147659 22.88328362 C-11.69418653 20.06072152 -11.67480728 17.24013932 -11.64697266 14.41772461 C-11.65709381 13.58485931 -11.66721497 12.75199402 -11.67764282 11.89389038 C-11.60027766 7.65607542 -11.3528238 5.96415329 -8.70565796 2.48170471 C-5.73408724 0.30523755 -3.69125949 -0.2237127 0 0 Z " fill="#EC5B77" transform="translate(280,72.5)"/>
<path d="M0 0 C2.8100346 1.79363911 4.50940468 3.01880935 6 6 C6.09284346 8.47189082 6.12583159 10.91531511 6.11352539 13.38720703 C6.11367142 14.14827759 6.11381744 14.90934814 6.1139679 15.69348145 C6.11326993 18.21495389 6.10548294 20.73635292 6.09765625 23.2578125 C6.09579166 25.00373291 6.09436795 26.74965384 6.09336853 28.49557495 C6.08954659 33.09545328 6.07971905 37.69530014 6.06866455 42.29516602 C6.05844349 46.9871376 6.05386942 51.67911425 6.04882812 56.37109375 C6.03809651 65.58074301 6.02102394 74.79036889 6 84 C6.70084717 83.97381592 7.40169434 83.94763184 8.1237793 83.9206543 C11.3114565 83.8164646 14.49877526 83.75160417 17.6875 83.6875 C18.79029297 83.64560547 19.89308594 83.60371094 21.02929688 83.56054688 C29.21509383 83.43689435 29.21509383 83.43689435 33.20703125 86.30078125 C35.45735109 89.68851766 36 91.93697384 36 96 C34.41161066 99.57387602 33.28365642 100.81089572 30 103 C27.15746616 103.23228154 24.41532759 103.35202336 21.5703125 103.37109375 C20.742966 103.38012222 19.91561951 103.3891507 19.0632019 103.39845276 C17.31316751 103.41295615 15.56307888 103.42184222 13.81298828 103.42553711 C11.1413183 103.43742738 8.47196327 103.4866028 5.80078125 103.53710938 C4.09896959 103.54657468 2.39714376 103.5538092 0.6953125 103.55859375 C-0.10067352 103.57812607 -0.89665955 103.59765839 -1.71676636 103.61778259 C-5.99403951 103.58315473 -7.52903708 103.38074324 -10.98095703 100.59008789 C-14.34525217 96.27427083 -14.15388015 92.98416453 -14.16113281 87.68237305 C-14.16609772 86.82204468 -14.17106262 85.96171631 -14.17617798 85.07531738 C-14.19081803 82.22077645 -14.19760498 79.3662911 -14.203125 76.51171875 C-14.20887533 74.53115334 -14.21463308 72.55058795 -14.22039795 70.57002258 C-14.23091346 66.41297139 -14.23675239 62.25593958 -14.24023438 58.09887695 C-14.24571752 52.77230918 -14.26973943 47.44599725 -14.29820633 42.1195097 C-14.31683201 38.02656813 -14.32203829 33.93368815 -14.32357025 29.84070778 C-14.32659792 27.87710994 -14.33463028 25.91351321 -14.34775543 23.94995689 C-14.36481293 21.20171042 -14.3629363 18.45408851 -14.35644531 15.70581055 C-14.37026749 14.48916466 -14.37026749 14.48916466 -14.3843689 13.24794006 C-14.35036711 8.65155069 -13.90234274 5.62681145 -11 2 C-7.31502204 -0.45665197 -4.28028214 -0.70086491 0 0 Z " fill="#EC5A76" transform="translate(341,73)"/>
<path d="M0 0 C0 0.66 0 1.32 0 2 C-1.42523153 2.91622027 -2.85068937 3.83209059 -4.27734375 4.74609375 C-9.78699539 8.75652046 -13.69851282 14.29895445 -15 21 C-16.42204571 36.0104825 -11.51685007 42.73881337 -2.51855469 54.07958984 C-0.33065286 56.84647663 1.829395 59.63472242 3.99169922 62.42163086 C5.77346715 64.71774141 7.5581441 67.01156061 9.34375 69.3046875 C9.94574219 70.07780273 10.54773438 70.85091797 11.16796875 71.64746094 C11.77253906 72.42379883 12.37710938 73.20013672 13 74 C14.82144499 76.33894509 16.64276624 78.67798508 18.46337891 81.01757812 C19.64695384 82.53788481 20.83151196 84.05742663 22.01708984 85.57617188 C24.64945771 88.95287472 27.26509761 92.3378698 29.8203125 95.7734375 C37.12172536 105.77111304 37.12172536 105.77111304 47 113 C47 113.66 47 114.32 47 115 C41.68763683 117.65618159 33.69284837 116.7520898 28.1328125 115.19921875 C21.53955085 112.21068427 17.38427676 107.63572741 13 102 C12.26523437 101.06285156 11.53046875 100.12570312 10.7734375 99.16015625 C9.1173261 97.02123713 7.4710814 94.87740161 5.8359375 92.72265625 C2.59367311 88.45340403 -0.70397707 84.2277969 -4 80 C-9.25377934 73.25047025 -14.50688346 66.50119624 -19.69335938 59.69970703 C-21.16283131 57.78818544 -22.65206982 55.89278664 -24.140625 53.99609375 C-37.93624862 36.26301244 -37.93624862 36.26301244 -37.3828125 24.51171875 C-36.23337619 16.97000908 -32.92782762 9.90208682 -27 5 C-19.50375055 -0.08392256 -8.85042161 -4.42521081 0 0 Z " fill="#4B998F" transform="translate(383,195)"/>
<path d="M0 0 C0.77085937 0.04382813 1.54171875 0.08765625 2.3359375 0.1328125 C5.75109977 1.24011767 6.72357925 2.84527595 8.625 5.875 C9.20770537 8.8544075 9.18213325 11.77996796 9.15844727 14.80859375 C9.16706284 15.69862091 9.17567841 16.58864807 9.18455505 17.50564575 C9.2072195 20.44156139 9.2004757 23.37652296 9.19140625 26.3125 C9.19664135 28.3560413 9.20291741 30.39958017 9.21018982 32.44311523 C9.22059472 36.72358582 9.21603076 41.00372397 9.20141602 45.28417969 C9.18422191 50.76899856 9.20773108 56.25277048 9.24290562 61.73747253 C9.26486674 65.95657287 9.26344133 70.17542214 9.2551403 74.39456177 C9.2543202 76.41676991 9.26119479 78.43899637 9.27591133 80.46115112 C9.29333481 83.28855763 9.27883362 86.11407569 9.25610352 88.94140625 C9.26779572 89.77584259 9.27948792 90.61027893 9.29153442 91.47000122 C9.22189737 95.72808654 8.99918991 97.39338815 6.30039978 100.86694336 C2.9042701 103.41595335 0.86705093 103.94942195 -3.375 103.875 C-8.84335443 100.93829114 -8.84335443 100.93829114 -10.375 97.875 C-10.489249 95.00304424 -10.54286269 92.15479124 -10.55200195 89.28198242 C-10.56185875 87.9475988 -10.56185875 87.9475988 -10.57191467 86.58625793 C-10.59166937 83.63432741 -10.60331486 80.68244779 -10.61328125 77.73046875 C-10.61735678 76.72354792 -10.6214323 75.71662708 -10.62563133 74.6791935 C-10.64650095 69.3501773 -10.66079903 64.02118692 -10.67016602 58.69213867 C-10.68123469 53.18389836 -10.71563747 47.67606156 -10.75533772 42.16796398 C-10.78146488 37.93605287 -10.78985437 33.70423848 -10.79344749 29.4722538 C-10.79832324 27.44165635 -10.8099652 25.4110635 -10.82848549 23.38054466 C-10.85279473 20.53877024 -10.85192696 17.69804741 -10.8449707 14.85620117 C-10.85778076 14.0170517 -10.87059082 13.17790222 -10.88378906 12.31332397 C-10.84796479 8.299057 -10.67552941 6.34824503 -8.47062683 2.87617493 C-5.48911768 0.02904524 -4.01391017 -0.30671074 0 0 Z " fill="#EC5875" transform="translate(236.375,76.125)"/>
<path d="M0 0 C13.7480524 13.7480524 24.15236423 29.92106034 33.625 46.8125 C34.05119629 47.57151611 34.47739258 48.33053223 34.91650391 49.11254883 C35.30757324 49.82435303 35.69864258 50.53615723 36.1015625 51.26953125 C36.44525879 51.89448486 36.78895508 52.51943848 37.14306641 53.16333008 C38.04081406 55.08747697 38.55292235 56.92861655 39 59 C38.32195312 59.01417969 37.64390625 59.02835938 36.9453125 59.04296875 C28.29670799 59.48617978 21.0433418 61.47466343 15.07421875 68.02734375 C11.42510187 72.45347437 8.80188776 77.38560176 6.125 82.4375 C5.62742187 83.35982422 5.12984375 84.28214844 4.6171875 85.23242188 C3.40374593 87.48428941 2.19827609 89.74003721 1 92 C0.67 92 0.34 92 0 92 C0 61.64 0 31.28 0 0 Z " fill="#FE8A33" transform="translate(448,86)"/>
<path d="M0 0 C2.23468062 -0.01716382 4.46786215 -0.06104241 6.70214844 -0.10522461 C8.13182509 -0.11535641 9.56151429 -0.12387099 10.99121094 -0.13061523 C12.93592285 -0.15248901 12.93592285 -0.15248901 14.91992188 -0.17480469 C19.10519281 0.37356494 21.25104626 1.66018369 24.50683594 4.29516602 C26.23691161 7.75531737 25.99036324 11.51189156 25.50683594 15.29516602 C23.39291717 18.79406605 22.38947535 20.00095288 18.50683594 21.29516602 C16.05226996 21.42720047 13.62679201 21.50718055 11.17089844 21.53344727 C10.45453217 21.54151901 9.73816589 21.54959076 9.00009155 21.5579071 C7.48543705 21.57172315 5.97075173 21.58245638 4.45605469 21.59033203 C2.91006322 21.60186201 1.36411188 21.62233023 -0.18164062 21.65185547 C-2.41856867 21.69457955 -4.65431593 21.7107055 -6.89160156 21.72094727 C-7.57821869 21.73845535 -8.26483582 21.75596344 -8.97225952 21.77400208 C-13.76454848 21.75245328 -16.10721943 20.64234029 -19.49316406 17.29516602 C-21.52956639 14.61081749 -21.49310738 13.29204863 -21.43066406 9.85766602 C-20.32256643 5.64689501 -18.80679948 4.0430588 -15.49316406 1.29516602 C-11.02526138 -0.93878532 -4.96759919 0.02658501 0 0 Z " fill="#C6D0DA" transform="translate(366.4931640625,307.704833984375)"/>
<path d="M0 0 C2.15538164 0.0031586 4.30938762 -0.02031044 6.46459961 -0.0456543 C7.8428531 -0.04792773 9.22111025 -0.04863058 10.59936523 -0.04760742 C11.84645264 -0.05058838 13.09354004 -0.05356934 14.37841797 -0.05664062 C18.71626839 0.42548326 21.16337023 2.07608028 24.51342773 4.72973633 C26.54106285 7.37674551 26.19120585 9.86874213 26.09155273 13.08911133 C25.55921567 16.35182238 24.09761839 18.08570027 21.72827148 20.31567383 C17.16034492 22.59963711 10.45360946 21.62724505 5.38061523 21.66577148 C3.7860654 21.68230035 2.19158874 21.70955034 0.59741211 21.74780273 C-1.70831507 21.8028149 -4.01230681 21.824482 -6.31860352 21.83911133 C-7.37830353 21.87311539 -7.37830353 21.87311539 -8.45941162 21.9078064 C-12.3355265 21.89141115 -14.74140984 21.30845884 -17.70629883 18.90795898 C-20.45661082 16.12885613 -21.15312653 15.35937126 -21.58422852 11.56567383 C-21.18926003 7.45800154 -19.86596531 5.48640769 -17.27172852 2.31567383 C-12.28260813 -1.0616539 -5.78855704 -0.01779067 0 0 Z " fill="#C6D0DA" transform="translate(366.271728515625,417.684326171875)"/>
<path d="M0 0 C2.22779324 0.00315861 4.45425567 -0.02030957 6.68188477 -0.0456543 C8.10571122 -0.04792771 9.52954123 -0.04863059 10.95336914 -0.04760742 C12.24235107 -0.05058838 13.53133301 -0.05356934 14.859375 -0.05664062 C18.54247413 0.34179352 20.38611336 1.0750262 23.30102539 3.31567383 C25.9831245 7.33882249 25.98945954 10.58787302 25.30102539 15.31567383 C23.18710662 18.81457386 22.1836648 20.02146069 18.30102539 21.31567383 C13.6378561 21.59032556 8.97567625 21.6289998 4.30517578 21.66577148 C2.76595932 21.68231697 1.22681926 21.70958917 -0.31201172 21.74780273 C-2.54166125 21.80282037 -4.76951729 21.82447962 -6.99975586 21.83911133 C-7.6812117 21.8617807 -8.36266754 21.88445007 -9.06477356 21.9078064 C-14.659822 21.88329463 -16.91277149 20.12554296 -20.69897461 16.31567383 C-21.95247472 13.62738227 -22.0494118 11.25130343 -21.69897461 8.31567383 C-16.89895771 -1.28435997 -9.53939254 -0.02836916 0 0 Z " fill="#C6D0DA" transform="translate(366.698974609375,362.684326171875)"/>
<path d="M0 0 C3.34125 -0.061875 6.6825 -0.12375 10.125 -0.1875 C11.68758545 -0.22846802 11.68758545 -0.22846802 13.28173828 -0.27026367 C19.93090527 -0.32973401 24.221783 0.58733786 29.375 5.0625 C31.75477223 9.36439595 31.89963018 13.1942832 31 18 C28.98880367 21.88725299 26.05018218 24.39002962 22 26 C19.52636719 26.22705078 19.52636719 26.22705078 16.796875 26.1953125 C15.91354492 26.19031738 15.03021484 26.18532227 14.12011719 26.18017578 C13.00797852 26.16196777 11.89583984 26.14375977 10.75 26.125 C7.2025 26.08375 3.655 26.0425 0 26 C0 17.42 0 8.84 0 0 Z " fill="#E7E5EB" transform="translate(155,134)"/>
<path d="M0 0 C3.28547917 2.16461147 6.37783301 4.4801875 9.43359375 6.95703125 C10.32594727 7.66762695 10.32594727 7.66762695 11.23632812 8.39257812 C12.99791872 9.79992537 14.74839371 11.21998525 16.49609375 12.64453125 C17.08277832 13.11810059 17.66946289 13.59166992 18.27392578 14.07958984 C19.70087052 15.24434867 21.10133444 16.44141826 22.49609375 17.64453125 C22.49609375 17.97453125 22.49609375 18.30453125 22.49609375 18.64453125 C18.684289 19.29451194 14.87153443 19.93875054 11.05859375 20.58203125 C9.98931641 20.76443359 8.92003906 20.94683594 7.81835938 21.13476562 C-2.26211976 22.83025906 -11.83748147 23.79503656 -22.06640625 23.70703125 C-23.07509766 23.70251953 -24.08378906 23.69800781 -25.12304688 23.69335938 C-27.58339772 23.68169894 -30.04361864 23.66533503 -32.50390625 23.64453125 C-28.2513781 19.13582671 -23.53707791 15.41632819 -18.62890625 11.64453125 C-17.85160156 11.04125 -17.07429688 10.43796875 -16.2734375 9.81640625 C-14.74507496 8.63481504 -13.21037698 7.46136556 -11.66894531 6.296875 C-10.27477413 5.23285261 -8.89960531 4.14321213 -7.54980469 3.0234375 C-3.19824458 -0.45404096 -3.19824458 -0.45404096 0 0 Z " fill="#FE8B35" transform="translate(289.50390625,488.35546875)"/>
<path d="M0 0 C-4.25252815 4.50870454 -8.96682834 8.22820306 -13.875 12 C-14.65230469 12.60328125 -15.42960937 13.2065625 -16.23046875 13.828125 C-17.75883129 15.00971621 -19.29352927 16.18316569 -20.83496094 17.34765625 C-22.22913212 18.41167864 -23.60430094 19.50131912 -24.95410156 20.62109375 C-26.7578125 22.0625 -26.7578125 22.0625 -30 24 C-34.85484408 23.37679498 -38.86980629 19.11614347 -42.5625 16.0625 C-43.87593679 14.99043772 -45.18972854 13.91881015 -46.50390625 12.84765625 C-47.11121582 12.34766113 -47.71852539 11.84766602 -48.34423828 11.33251953 C-49.6811766 10.25658185 -51.06659022 9.24104753 -52.46484375 8.24609375 C-52.97144531 7.83488281 -53.47804687 7.42367188 -54 7 C-54 6.34 -54 5.68 -54 5 C-35.84645911 1.37894796 -18.51798344 -0.33287304 0 0 Z " fill="#FE8B35" transform="translate(255,0)"/>
<path d="M0 0 C2.5679449 1.20297557 4.53639175 2.49352593 6.75268555 4.25 C7.50807617 4.84361328 8.2634668 5.43722656 9.04174805 6.04882812 C10.20577148 6.97791992 10.20577148 6.97791992 11.39331055 7.92578125 C12.15385742 8.52583984 12.9144043 9.12589844 13.69799805 9.74414062 C15.23220436 10.95460341 16.76411774 12.16797816 18.29370117 13.38427734 C21.50095441 15.91502143 24.7485467 18.39251206 27.99975586 20.86645508 C28.54212891 21.31915771 29.08450195 21.77186035 29.64331055 22.23828125 C29.64331055 22.56828125 29.64331055 22.89828125 29.64331055 23.23828125 C11.64326919 23.89950726 -6.86911261 22.91845839 -24.35668945 18.23828125 C-22.604617 13.57312449 -19.01928659 11.51324454 -15.10253906 8.68823242 C-11.31868885 5.95233953 -7.70268528 3.09488166 -4.1730957 0.0390625 C-2.35668945 -0.76171875 -2.35668945 -0.76171875 0 0 Z " fill="#FE8B35" transform="translate(225.356689453125,488.76171875)"/>
<path d="M0 0 C18.62702386 -0.68425802 36.74035849 1.24367123 55 5 C51.08396807 9.07417937 46.90830746 12.65648937 42.5 16.1875 C41.84902344 16.72052734 41.19804687 17.25355469 40.52734375 17.80273438 C33.50989559 23.4379579 33.50989559 23.4379579 30 24 C27.265625 22.46484375 27.265625 22.46484375 24.25 19.9375 C23.11696429 19.00909843 21.98278618 18.08208986 20.84765625 17.15625 C20.23809082 16.6509375 19.62852539 16.145625 19.00048828 15.625 C14.5647612 12.02185143 9.95093719 8.64131987 5.38574219 5.20483398 C4.68481445 4.67188721 3.98388672 4.13894043 3.26171875 3.58984375 C2.63225342 3.11409912 2.00278809 2.63835449 1.35424805 2.14819336 C0.90734619 1.76928955 0.46044434 1.39038574 0 1 C0 0.67 0 0.34 0 0 Z " fill="#FE8B34" transform="translate(257,0)"/>
<path d="M0 0 C6.2350761 1.88375583 9.46346497 8.02193257 12.94482422 13.22802734 C14.03096419 14.80326622 15.23390146 16.29627629 16.4453125 17.77734375 C18.12890625 19.9453125 18.12890625 19.9453125 18.12890625 21.9453125 C14.2540499 22.03282663 10.37944982 22.08587685 6.50390625 22.1328125 C5.40949219 22.15794922 4.31507813 22.18308594 3.1875 22.20898438 C-7.03341945 22.30190182 -7.03341945 22.30190182 -11.87109375 18.9453125 C-14.46957396 15.92772258 -14.87109375 14.44942634 -14.87109375 10.4453125 C-13.69675426 6.3351243 -12.09032215 4.68165664 -8.87109375 1.9453125 C-6.60291367 -0.32286758 -3.01052976 0.00785014 0 0 Z " fill="#C5D0D9" transform="translate(359.87109375,252.0546875)"/>
<path d="M0 0 C2.701875 -0.061875 5.40375 -0.12375 8.1875 -0.1875 C9.02949951 -0.21481201 9.87149902 -0.24212402 10.73901367 -0.27026367 C15.32319574 -0.32093869 18.29360873 0.00557089 22 3 C24.36086122 6.54129184 24.57269578 7.82750218 24 12 C22.17794457 14.92612619 20.13027505 17.43486248 17 19 C14.11426648 19.07199934 11.25934885 19.0927068 8.375 19.0625 C5.61125 19.041875 2.8475 19.02125 0 19 C0 12.73 0 6.46 0 0 Z " fill="#E7E5EB" transform="translate(155,96)"/>
<path d="M0 0 C0.68449219 0.43054688 1.36898438 0.86109375 2.07421875 1.3046875 C2.07421875 2.2946875 2.07421875 3.2846875 2.07421875 4.3046875 C-0.54746436 5.33484772 -3.17252006 6.35407144 -5.80078125 7.3671875 C-6.54714844 7.66173828 -7.29351562 7.95628906 -8.0625 8.25976562 C-9.99553688 8.99989236 -11.95943157 9.65824485 -13.92578125 10.3046875 C-14.58578125 9.9746875 -15.24578125 9.6446875 -15.92578125 9.3046875 C-13.87946558 7.57295916 -11.81759995 5.87095643 -9.73828125 4.1796875 C-9.16013672 3.68597656 -8.58199219 3.19226563 -7.98632812 2.68359375 C-3.58061432 -0.85093371 -3.58061432 -0.85093371 0 0 Z " fill="#FE903A" transform="translate(353.92578125,488.6953125)"/>
<path d="M0 0 C-2.04631567 1.73172834 -4.1081813 3.43373107 -6.1875 5.125 C-6.76564453 5.61871094 -7.34378906 6.11242187 -7.93945312 6.62109375 C-9.66796875 8.0078125 -9.66796875 8.0078125 -13 10 C-15.92578125 9.3046875 -15.92578125 9.3046875 -18 8 C-18 7.01 -18 6.02 -18 5 C-15.37831689 3.96983978 -12.75326119 2.95061606 -10.125 1.9375 C-9.37863281 1.64294922 -8.63226563 1.34839844 -7.86328125 1.04492188 C-2.2265625 -1.11328125 -2.2265625 -1.11328125 0 0 Z " fill="#FD8E3B" transform="translate(174,14)"/>
<path d="M0 0 C6.61242722 1.82221376 12.80520671 4.05223604 19 7 C17.68 8.32 16.36 9.64 15 11 C10.92584833 9.59790456 8.01720177 7.65552322 4.6875 4.9375 C3.80449219 4.22464844 2.92148437 3.51179688 2.01171875 2.77734375 C1.34785156 2.19082031 0.68398438 1.60429687 0 1 C0 0.67 0 0.34 0 0 Z " fill="#FE8F3A" transform="translate(338,13)"/>
<path d="M0 0 C4.10110762 1.40398279 6.98089159 3.37087038 10.3125 6.125 C11.19550781 6.84945313 12.07851562 7.57390625 12.98828125 8.3203125 C13.98408203 9.15175781 13.98408203 9.15175781 15 10 C13 11 13 11 11.12060547 10.47094727 C10.37697754 10.17244873 9.63334961 9.8739502 8.8671875 9.56640625 C8.06152344 9.24736328 7.25585938 8.92832031 6.42578125 8.59960938 C5.58402344 8.25736328 4.74226562 7.91511719 3.875 7.5625 C2.60076172 7.05493164 2.60076172 7.05493164 1.30078125 6.53710938 C-0.80232371 5.69823043 -2.90230155 4.85228875 -5 4 C-3.35 2.68 -1.7 1.36 0 0 Z " fill="#FE8D39" transform="translate(159,488)"/>
</svg>
